<svg width="665.705499" height="681.020107" viewBox="0 0 176.13458 180.18657" xml:space="preserve" xmlns="http://www.w3.org/2000/svg"><path stroke="#000" stroke-width=".2" d="M53.015455 93.88167h-.771078v-.51405h-.514052v.51405h-.514052.257026v1.0281h-.514051v.51405l-.257026.25703v.25702h-.771078v-1.0281h-.514052.514052v1.28513h.257026v1.0281h-.514052l-.257026.51406h-.514052v.51405h-.257025v.514051h-.514052v.257029h-.257026v.25702h-.514052v.51405h-.514052v.25703l-.257026.25702h-.257026v.77108h-.257026v.77108h-.514051v.51405h-.257026v.77108h-.514052v.51405h-.514052v.25703h-.514052v.25702h-.257025l-.257026.51405h-.514052v.51406h-.514052v.51405h-.514052v.25702h-.257026l-.257026.25703-.257025.51405h-.514052l-.257026.25703v.25702h-1.028104v.51406l-.257026-.25703h-2.570259v-.51405h-1.028103v.51405l-.257026.25703v.25702h-.257026v.51405h-.257026v.51406h-1.028104v.51405h-.514051v.25702h-.514052v.51405h-.514052v.25703h-.514052v.77108h-.514052v1.28513h-.514051v.77108h-1.28513v.51405h-.257026v.51405l-.514052.25703v.77107h-.257025l-.257026.25703v.25702h-.514052v.51406h-.514052v.51405l-.514052.51405h-.257026l-.257026.25703h-.514051l-.257026.25702h-.257026l-.514052.51405v-.25702.25702h-.257026v.25703h-.771078v.51405h-1.028103l-.257026.25703v.25702h-.257026v.51405h-1.028104v.25703h-.514051v1.79918h-1.028104v.25703h-.257026v.25702h-.257026v.51406h-.514052v.25702h-.257025v.25703h-.514052v.51405h-.771078v.25703h-.514052v.25702h.514052-1.285129l-.257026.51405h-.514052v.51405h-1.799181v.51406-.25703h-.257026v-.25703h-.514052v1.02811h-1.028104v.51405h-.514052v2.31323h-.771077l-.257026.25703H8.807v2.57026-.25703h.514052v.77108h.514052v.51405h.514051l-.257025.25703v1.28513l-.514052.51405v.25702h-.257026v.51406h1.028103v-.25703h.514052v.51405h.257026v.51405h-.771078 1.028104v.51406h1.028104l.257026.51405v1.0281h.257025v.25703l.514052.25702h1.028104v-.51405h.514052v-.25702h1.542155v.51405h-.514052v.25702l-.257026.51405h-1.028103v.25703h-.257026l-.257026.25703-.514052.51405v-.25703h-.771078v1.02811h-.514051v.51405h1.542155v-.51405h.514052v-.51406h.514052v.51406h1.542155v2.0562h-.514052l.257026.51406h.257026v-.25703h.514052v-.25703h1.028103v-.51405h.514052v-.77108h.514052v-.51405 0-1.28513h.257026v-.25702h.514052v-.51406h.257026l.257025.25703h1.028104v.25703h.257026v3.08431h.514052v-1.02811h.257026v0h.257026l.514051-.51405.257026.25703h.771078v-1.02811 0-.51405h.771078v-.25702h.257026l.257026-.25703v-.25703h.514051v.25703h.257026v.25703h.514052v.51405h.514052v.51405h.257026v1.0281h1.028103v.51406h.257026v.51405h2.056207v1.0281h-1.285129v.51405h-1.028104m24.160435-51.40518h-.257026zm-24.160435 51.40518.514052.25703v.25702h-.257026v-.51405zm0 0h-.514051v.25703h-.257026v1.0281h-.514052v.25703m0 0h.771078v.51405h-.257026v.51405h.257026v.51405h.514051v.25703l.514052.25703h-.257026v.77107h1.028104v-.51405h1.028103v1.02811m.257026 0v-.25703m0 0-.514051.51405v.25703h.257025v1.28513h.771078v1.0281h-.257026v.51405m0 0h.514052v-.51405 0h.514052m-1.28513.77108h-.257026zm1.28513-.77108v-.25703m0 0h.514052v.51406h1.028103v.25702h.514052l.257026.51405v1.02811h.514052v-.25703h.514051v.25703h.257026l.257026.25702v.25703h2.056207v-1.0281h-.514051.257026l.257025-.51406v-1.54215h-.514051v-.51405h.257026m0 0v-.25703zm0 0h.514051v-.51406h-.257026v-.51405h.514052v-.25702h.257026v-1.02811l.514052-.25702h.257026v-1.54216h-.514052v0h.257026V146.829h-.257026v-.51405h-.257026v-.25703h.514052v-.51405h.257026l.257026-.25702h1.028103v-.25703h.257026v-.51405h-1.028103l-.514052-.25703v-1.28513h.257026v-.51405l.257026-.25702h.771077v-.25703h1.28513v-1.0281h.514052v-.25703h.257026l.257025-.51405v.25702h2.056208v0h1.542155v-.25702h.514052v-.25703h.514052v-.51405h-.771078.514052v-.51405h.257026v-1.54216l.514051-.25702m0 0h-.257025zm0 0v-.51405h.514052v-.25703h.514052v-.25703h.514052v.51406h1.028103v.77107h2.056208v-.77107h-1.028104.514052l.771078-.77108h.514051v-.51405h-1.542155v-.51405l.514052-.51406v-1.54215h.257026v-.51405h1.028103m0 0 .514052.25702m0 0v.25703m0 0h-.257026m.514052 0v-.51405l.257026.25702v.51405zm0 0-.257026.51405h-.257026v.25703h-.514052v.51405h.257026v-.25703h.514052v-.51405h.257026l.257026-.25703.257026-.25702h.514052l.514051.51405h1.028104v-.25703h.514052l.514052.25703.257026.25703h.514051v-.25703h.257026v.25703h.514052v.51405h.257026m0 0h.257026zm0 0h.257026l.771078.25702.514051.25703v.25703h.514052v.51405l.257026-.25703.514052.25703v1.0281h.514052l.257026-.25703v1.02811m0 0h1.028103v.51405h.514052v.51405h.514052v.51405m-1.799182-1.54215h-.257026zm2.056208 1.54215v.25703l.257025.25703h.514052m-.771077-.51406h-.257026v.25703zm.771077.77108v-.25702m0 0h.514052-.257026m0 0h-.257026m0 0v-.51406h.514052v.25703h.514052v.25703h1.028103v.51405h.257026l.514052.51405h.257026l.257026.51405.514052.25703.257026.51405h.257026v.25702h.514051v.51406h.257026l.514052.77107v.51406l.257026.25702v.25703l.257026.51405v1.0281h-.514052v.25703l-.257026.25702v.51406h-1.285129v.25702h-.514052v.25703h.257026v1.0281h-.514052v.51405h.257026-.257026v.25703m0 0v.25703zm0 0-.257026.25703h-.257026v.51405h-.771078v.25702h-.257025v1.28513h.514051v.77108h.514052v1.0281h.514052v.51406h.257026v.25702h.257026v.25703h.514052v.51405h.257026v.51405h.257025v.51405h.514052v1.02811h.257026v.25702h.257026v2.57026h-.514052v2.05621l-.257026.25702v1.79919h.257026v.51405h.514052v1.0281h.514052v.51405h.257026v.25703h.257026v.51405h.514051v.25703l.257026.25702h.257026v.25703h.514052v.51405h1.028104v.25703h.514051v.51405h.514052-.257026v.25702h.257026l.257026.25703v.77108h.257026v.25702h.514052v.51406h.514052v.51405h.514051l.257026.51405v.51405h.257026v.51405h1.28513l.257026-.25702h.771077v-.25703h.771078v-.77108h1.028104v.51405h.514051v.51406h.257026l.514052.25702v.25703h1.542155v.51405l.514052-.25703.257026-.51405.257026-.25702v-1.02811h.514052l-.257026.51405h.514052v-.51405h.514052v-.25702h1.542155l.25703.25702h3.59836v-.25702h.25702l.25703-.51405h.771082l.25702.25702h.51405v.51405h1.02811v.25703h.25701v.25702h1.28513v.51406h.51406v.51405h.51405v-.51405h.51405-.25703v-.51406h.51406v-.51405h.25702v-.25702h1.0281l.51406-.51405h2.0562l.25703.25702h1.0281l.25703.51405v-.25702m0 0h.51405v-.51405m0 0-.25703.25702zm0 0h.51405v.25702h.77108v.51405h.25703l.51405.25703v.25702h.51405v.51406h.51405l.25703.25702.25702.25703h.25703v.51405h.51405v.25703l.51405.51405v.25702h.25703v.25703h.25702v.51405h.25703v2.31323h-.51405v.25703h-.77108v1.0281h.51405v.25703h-.25702v.77108h1.28513v.51405h.25702l.25703-.25703h.51405v-.51405m0 0v0-.51405h1.0281v1.28513h.25703l.25703-.25703h.25702v.25703h.77108v.25703l.25702.25702v.51405h.51406l.25702.25703v.77108l-.25702.25702v.77108h.25702v.25703h.51405v.51405h.25703v.51405h.51405v-.51405h.51405v.25702h-.25702v1.28513h.25702v.25703h.51406v.51405l.51405-.25702h.25702v.51405h.25703v-.25703h.51405v.25703h.25703v1.0281h.25702v.51405h.51405v.51405h.51406l.51405.51406v-.25703h1.0281l.25703-.25703h.77108v-.51405h1.0281v-.51405h.25702v-.51405h.25703v-.51405h.51405l-.25702-.51405v-.25703h.25702v-.25703h.25703v-.51405h.25702v-.25702h.51406v-.77108h.25702v-.51405h.77108v-.77108h.25703v-.25703h.25702v-.51405h.51405v-1.0281h.51406v-.25703h.51405v-.51405h.25702v-.25703h.25703v-1.0281h.51405v0m0 0v-.25703zm0 0h.51405v-.77108h1.02811v.25703h.51405l.25702-.25703v-.25702h.77108v-.51406h.25703v-.25702h.25702v-.77108h-.51405l.25703-.25702h.25702v-.25703h.51406v-.51405h.51405v.25702h3.85539v-.25702h.25702v-.51405m0 0h-.25702m0 0v-.51406.25703m0 0h1.28512v-.77108h1.02811v-1.0281h.25702v-1.28513h.51406v-.25703h-.25703v-.25702h-.51405v-.51405h-.51405.51405v-.25703.25703h.25702v-.25703h1.02811m-3.59836 4.36944h-.25703zm3.59836-4.36944v-.25703h.25702zm0 0h1.28513v-.25703l.51405-.25702h.51405l.51405-.51405-.25702-.25703h-.25703m0 0-.51405.25703h.25703zm0 0h-.51405.51405v-1.0281m0 0v-.51406.25703m0 .51405v-.25702m0 0h.51405v.77107h1.54216v-.25702h.51405l.25703-.25703v-.25702h.25702v-1.02811h.51405V166.62l-.77107-.51406v.51406h-1.02811v-.51406m0 0h-.51405v0h.51405v.25703zm0 0h.51405v0h.25703v-.25702h1.0281v-1.0281m0 0h-.51405v-.25703h.25703zm0 0v-.51406m0 0v-.25702zm0 0v.51406h.51406v-.51406h.25702v-.77107h.25703v-1.02811m0 0v-.51405.25703zm0 0 .51405-.51405v-.51405m0 0h-.25703v-.51405h.51406l.25702-.25703v-1.79918h.51405v-.51405h.25703v-.25703m-1.28513 3.34134h.25703zm1.28513-3.34134-.25703-.25702h.25703v-.51406l.25702.25703v-.51405h.51406v-.25703l.25702-.51405h-.51405l-.25703.25703v.25702h-.51405v-1.0281h.25703v-1.28513h.25702v.25703-.51406h.51406v1.54216h.51405v1.0281h.51405v-.51405h.25703v-1.0281h.25702v-1.02811h-.51405v-.25702h-.25703v-.77108h.51406v-4.36944h.25702v-.77108h-.51405v0h.51405V146.829m-2.31323 11.30914h.25702v-.25702zm2.57026-11.30914h-.25703zm0 0v-.51405h-.25703.51405v-.25703h-.25702v-.51405h.25702v-.25702h.25703v-.77108m0 0h.25703v-1.0281h.51405v-.51406h-.25703l-.51405-.25702h.25703-.51406l.25703-.51405v-.25703h.25703v.25703h.51405v-.25703h.25702v-.51405 0l-.25702-.25703h.51405v-.25702m0 0h-.25703v-.51406.25703zm0 0v-.51406h.25702v-.51405h.51406-1.02811v-.51405h1.02811v-1.0281h.51405v-.77108h.51405v-.51405h.25703v-.51405h.25702v-.51406h.51405v-.77107h.25703v0h-.25703v-.25703h1.02811v-1.0281h.25702v-.25703h.25703v-.51405h.51405v-.25703h.25703v-.25702h.25702v-.51405h.51405v-.25703h.25703l.25703-.25703h-.51406v-.77107l-.25702-.25703m0 0h.25702v.51405h.51406v-.51405l.51405-.51405h.51405l.25703-.25703h.51405v-.51405h.25702v-.25702h.51406v-.25703h.25702v-.51405h1.28513v-.25703l.25703-.25702v-.25703h-.77108.25702l.25703-.25703h.51405v-.25702h.25703v-1.79918.25702h-.25703v-.51405l.25703-.51405v-1.0281h1.28513v-.25703h2.31323v-.25703h.77108v-.51405h.25702v-.77108h-1.54215v-.25702h-.25703v-.25703h-1.54215v-3.85539l.51405-.25702h-.25703v-1.02811m-7.71077 14.90751v.25702h-.25703v-.51405.51405zm7.71077-14.90751.25703-.25702m0 0v.51405-.25703zm0 0v-1.0281m0 1.0281h.25703zm0-1.28513v-.51405h.51405v-1.79918h.51405v0l.25703-.51406v-.51405h1.28513l.25702-.51405h.25703v.25703h.51405v.51405-.25703h1.02811l.25702.25703h.51405v.25702h.51406v-.25702h1.0281v-.25703h.25702v-4.11241h.51406v-.51405h.51405v.25702h1.54215v-1.28513h-.25702v-1.0281l-.25703-.25703h.51405v-1.0281h-.51405v-1.28513h.51405v-.51405h-1.0281v-.25703h.25703v-.25702h.77107v-1.02811h-.51405v-.51405h-.51405.25703l.25702-.514049V96.70895l.51405-.25702v-.25703h.25703m-9.50996 18.24884h.25703zm9.50996-18.50587v-.25702l.25703-.25703v.25703m0 .25702v-.25702h.51405v-.25703h.25702v-.25702h.51406v.51405h.25702v-.51405h.25703v-1.79918h-1.02811v-.25703h-.51405l-.25702.25703h-2.31324v-.25703l-.25702-.51405m0 0v-1.02811h.51405v-.25702l.25702-.25703v-1.0281h1.28513v-.51405h-.25702v-.25703h-.25703v-.25702l-.51405-.25703v-.51405m0 0-.25703.25702h-.25702v.25703h-3.59836v-.51405h-.25703v-.25703h-.51405v-.51405h-1.02811l-.25702.25703h-.51405l-.25703-.51405-.25702.25702V87.199h-.51406v-.25703l-.25702-.51405v0h-.51405v-.77108h-.77108l-.51405.25703h-.25703v-.25703h-2.57026v-.25702h-.25702v-.25703h-.77108v-1.28513h-.25703v-.51405l-.25702.25702v-.25702h-1.02811v-.25703h-.51405v-.25702h-.25703v-.51405h-.25702v-.25703h-.77108v-.25703h-.51405v-.51405h-1.54216v.51405h-.51405v.25703h-.51405v2.05621h-.25703.25703v.51405h.25703v1.28513h-.51406v1.0281h-.51405v.51405h-.51405v.25703h-.25703v.25702h-1.54215v.51405h-.77108v.25703h-.51405v.77108h-.25703v.25702h-.51405v.25703h-.77108v.51405h-.77107v.51405h-.25703v.51405h-1.28513v.25703h-.25702v.51405h-.51406v.25703h-.51405v.25702l-.25702.25703h-1.79919l.25703.51405v.25703h-3.34134l-.25702-.25703v0-.25702l-.51405-.25703h-.51406l-.51405-.51405h-.25702v-.25703h-1.02811v-.25702h-.77107v-.51406h-.51406v-.25702h-.51405v-.25703h-1.0281l-.25703-.51405h-.77108v-.25703h-1.0281v-.51405h-1.0281v-.25702h-.51405v-.51405h-1.02811v-.51406h-1.0281v-.25702h-.25703v-.51405h-.51405v.25702h-.51405v-.51405h-.77108V87.199h-.25702v-.77108h-.51406l-.25702-.25703-.51405-.51405h-.51406v-.25702l-.25702-.51406-.51405-.51405-.25703-.51405h-.25703v-.51405h-.51405v-.51405l-.51405-.51405-.25703-.51406v-.51405l-.51405-.25702h.25703-.25703l-.25702-.77108v-.51405l-.51405-.51406v-3.85538l.25702-.51406v-.77107l.51405-.25703v-.25703h.51405v-.51405h1.28513m51.66221 15.42155h.51405v-.25702Zm-51.40518-15.42155h.51405l-.25702.51405h.51405l.25702.25703v.25703h.51406m-1.79919-1.02811v.51405m0-.51405v.51405m1.28513.77108-.51405.25703v.25702l.51405-.25702zm-1.79918-.77108v.25703h.25703zm51.91923 19.01992v-.25703ZM55.071662 135.51986v.25703zm0 .77108-1.028104 1.0281 1.28513-1.0281zm11.566165 2.05621.257026.25702zm-35.983625 15.9356v.25703zm118.231908 13.62238h.25702zm-2.57026 0 .25702.51405v-.25703zM130.12322 74.3477h.51405v-.25702h.77108l.25702-.51406h1.0281v-.25702h.51406v-.25703h.25702l.25703.51405h.51405v-.25702h.51405v-.77108h.77108v-.25702h.25703v-.51406h.51405v-1.0281h.25702v-.25703h.25703v-.25702l.51405-.51405v-.25703h.25703v-.25703l.25702-.51405v-.51405h-1.28513v-.51405h-.25702v-.51405h-.25703v-1.28513h.25703v-.77108h.51405-.51405v-1.0281h.51405l.51405-.51406h.51405v-.25702h.77108v-.51405h-.25703l-.25702-.25703h-.77108v-.25703h-1.0281v.51406h-.25703v.77107h-.25702v.25703l-.51406.25703h-.51405v.51405h-.51405v.25702h-.25703v.25703h-.25702v.77108h-.51405v-.25703h-.51406v.77108h-1.0281v.51405h-.51405v.25703h-1.0281v.51405h-.51406v.77108h-1.79918v-.51406h-.25702l-.25703-.25702h-.25703v.51405h-.51405v.51405h-.51405v.25703h-.51405v-.51405h-.25703v.25702h-.77107v1.28513h-.25703v.25703l-.79947-.50384s-4.9937-15.4257-.25714-20.222874c3.47739-3.521885 7.00724-1.745725 10.50695-5.245432 7.2832-7.2832 7.2832-23.616801 0-30.9-3.49971-3.499708-14.848 0-14.848 0v16.335M53.015455 93.88167h.257026v-.25703l.514052-.25702h.257025l.257026-.51406v-.25702h.514052v-.25703h.257026v-.51405h.514052v-.25703h.257026l.257026-.51405v-.51405h-.257026v-.51405h.257026v-2.05621h.514051v-.51405h.257026v-.51405h.257026v-.25702h.514052v-.51406h.771078l.514052.25703v.77108h1.028103l.257026.51405v0-.25703h.771078v-.77107h-.257026v-.51406h-.257026l-.257026.25703.257026.51405h-.514052v-.51405h.257026v-.25703 0-1.28513l.514052-.51405v-.25702h.257026v-.25703h.257026v.51405h.514051v-.51405h.514052v-1.0281h.514052v-.25703l.257026-.51405h1.028104v-.51405h.257025l.257026-.51405h.514052l.257026-.25703v-.25703 0-.51405h.771078v-.25702h.771077v-.51406l.257026-.25702v-.25703h1.028104v1.28513h1.028104v-.51405h.514051v-.25703h.514052v-.25702h.257026v-.25703 0-.51405h.771078v-1.0281h-.257026v-.51405h.514052v.25702h1.285129v-.25702h-.514052v-2.05621h.257026v-.51405h.257026v-.25703h.257026v-.25703h.257026l.257026.51406h.771078v-.51406h.771077v.25703h1.028104v.51405l.514052-.51405h.514051v-.25703h-.514051v-1.54215h1.028103v.77108h1.28513l.257026-.25703h.514051v-.51405h.257026v.77108h.257026v-.51405h.514052v-.51406h.514052v-.25702h.514052v-.51405h.514051v.51405h.514052v.51405l.257026-.25703.257026-.25702v-.51405h.257026v-.51406h.257026v-.77107h.257026v-.51406h2.056207v-.25702h.514052l.257026-.51405.380557-.13312s4.638057-15.34426-.102373-20.060553c-3.508571-3.490712-5.560054-.47964-9.059708-3.979293-7.283199-7.2832-7.283199-23.616801 0-30.9 3.499618-3.499618 14.847618 0 14.847618 0v16.334681H97.0265V13.134862h17.76946v16.563282h4.018" style="display:inline;fill:none;fill-opacity:1;stroke:#e6b100;stroke-width:1.614;stroke-linecap:square;stroke-dasharray:none;stroke-opacity:1" transform="translate(-8 -11)"/></svg>